<?xml version="1.0" encoding="UTF-8" standalone="no"?><svg xmlns="http://www.w3.org/2000/svg" xmlns:xlink="http://www.w3.org/1999/xlink" contentStyleType="text/css" height="957px" preserveAspectRatio="none" style="width:1129px;height:957px;background:#FFFFFF;" version="1.1" viewBox="0 0 1129 957" width="1129px" zoomAndPan="magnify"><defs/><g><rect height="681.7266" style="stroke:#000000;stroke-width:1.5;fill:none;" width="1030.5" x="92" y="177.6953"/><rect height="327.4609" style="stroke:#000000;stroke-width:1.5;fill:none;" width="1010.5" x="102" y="201.8281"/><rect height="195.9297" style="stroke:#000000;stroke-width:1.5;fill:none;" width="867.5" x="112" y="326.3594"/><rect fill="#FFC0CB" height="60.2656" style="stroke:none;stroke-width:1.0;" width="867.5" x="112" y="401.7578"/><rect fill="#808080" height="60.2656" style="stroke:none;stroke-width:1.0;" width="867.5" x="112" y="462.0234"/><rect height="135.6641" style="stroke:#000000;stroke-width:1.5;fill:none;" width="867.5" x="112" y="716.7578"/><rect fill="#FFC0CB" height="60.2656" style="stroke:none;stroke-width:1.0;" width="867.5" x="112" y="792.1563"/><line style="stroke:#181818;stroke-width:0.5;stroke-dasharray:5.0,5.0;" x1="152" x2="152" y1="81.2969" y2="876.4219"/><line style="stroke:#181818;stroke-width:0.5;stroke-dasharray:5.0,5.0;" x1="573" x2="573" y1="81.2969" y2="876.4219"/><line style="stroke:#181818;stroke-width:0.5;stroke-dasharray:5.0,5.0;" x1="913.5" x2="913.5" y1="81.2969" y2="876.4219"/><text fill="#000000" font-family="sans-serif" font-size="14" lengthAdjust="spacing" textLength="55" x="122" y="77.9951">Клиент</text><ellipse cx="152.5" cy="13.5" fill="#808080" rx="8" ry="8" style="stroke:#181818;stroke-width:0.5;"/><path d="M152.5,21.5 L152.5,48.5 M139.5,29.5 L165.5,29.5 M152.5,48.5 L139.5,63.5 M152.5,48.5 L165.5,63.5 " fill="none" style="stroke:#181818;stroke-width:0.5;"/><text fill="#000000" font-family="sans-serif" font-size="14" lengthAdjust="spacing" textLength="55" x="122" y="888.417">Клиент</text><ellipse cx="152.5" cy="900.2188" fill="#808080" rx="8" ry="8" style="stroke:#181818;stroke-width:0.5;"/><path d="M152.5,908.2188 L152.5,935.2188 M139.5,916.2188 L165.5,916.2188 M152.5,935.2188 L139.5,950.2188 M152.5,935.2188 L165.5,950.2188 " fill="none" style="stroke:#181818;stroke-width:0.5;"/><rect fill="#808080" height="30.2969" rx="2.5" ry="2.5" style="stroke:#181818;stroke-width:0.5;" width="73" x="537" y="50"/><text fill="#000000" font-family="sans-serif" font-size="14" lengthAdjust="spacing" textLength="59" x="544" y="69.9951">Booking</text><rect fill="#808080" height="30.2969" rx="2.5" ry="2.5" style="stroke:#181818;stroke-width:0.5;" width="73" x="537" y="875.4219"/><text fill="#000000" font-family="sans-serif" font-size="14" lengthAdjust="spacing" textLength="59" x="544" y="895.417">Booking</text><rect fill="#808080" height="30.2969" rx="2.5" ry="2.5" style="stroke:#181818;stroke-width:0.5;" width="112" x="857.5" y="50"/><text fill="#000000" font-family="sans-serif" font-size="14" lengthAdjust="spacing" textLength="98" x="864.5" y="69.9951">Authorization</text><rect fill="#808080" height="30.2969" rx="2.5" ry="2.5" style="stroke:#181818;stroke-width:0.5;" width="112" x="857.5" y="875.4219"/><text fill="#000000" font-family="sans-serif" font-size="14" lengthAdjust="spacing" textLength="98" x="864.5" y="895.417">Authorization</text><polygon fill="#181818" points="561.5,108.4297,571.5,112.4297,561.5,116.4297,565.5,112.4297" style="stroke:#181818;stroke-width:1.0;"/><line style="stroke:#181818;stroke-width:1.0;" x1="152.5" x2="567.5" y1="112.4297" y2="112.4297"/><text fill="#000000" font-family="sans-serif" font-size="13" lengthAdjust="spacing" textLength="204" x="159.5" y="107.3638">Открыть сервис бронирования</text><polygon fill="#181818" points="163.5,148.1289,153.5,152.1289,163.5,156.1289,159.5,152.1289" style="stroke:#181818;stroke-width:1.0;"/><line style="stroke:#181818;stroke-width:1.0;stroke-dasharray:2.0,2.0;" x1="157.5" x2="572.5" y1="152.1289" y2="152.1289"/><text fill="#000000" font-family="sans-serif" font-size="13" lengthAdjust="spacing" textLength="134" x="169.5" y="147.063">Форма авторизации</text><path d="M5,125.4297 L5,165.4297 L148,165.4297 L148,135.4297 L138,125.4297 L5,125.4297 " fill="#FEFFDD" style="stroke:#181818;stroke-width:0.5;"/><path d="M138,125.4297 L138,135.4297 L148,135.4297 L138,125.4297 " fill="#FEFFDD" style="stroke:#181818;stroke-width:0.5;"/><text fill="#000000" font-family="sans-serif" font-size="13" lengthAdjust="spacing" textLength="49" x="11" y="142.4966">Клиент</text><text fill="#000000" font-family="sans-serif" font-size="13" lengthAdjust="spacing" textLength="122" x="11" y="157.6294">зарегистрирован?</text><path d="M92,177.6953 L158,177.6953 L158,184.8281 L148,194.8281 L92,194.8281 L92,177.6953 " fill="#EEEEEE" style="stroke:#000000;stroke-width:1.5;"/><rect fill="none" height="681.7266" style="stroke:#000000;stroke-width:1.5;" width="1030.5" x="92" y="177.6953"/><text fill="#000000" font-family="sans-serif" font-size="13" font-weight="bold" lengthAdjust="spacing" textLength="21" x="107" y="190.7622">alt</text><a href="Пользователь" target="_top" title="Пользователь" xlink:actuate="onRequest" xlink:href="Пользователь" xlink:show="new" xlink:title="Пользователь" xlink:type="simple"><text fill="#0000FF" font-family="sans-serif" font-size="11" font-weight="bold" lengthAdjust="spacing" text-decoration="underline" textLength="116" x="173" y="189.9058">зарегистрирован</text></a><path d="M102,201.8281 L180,201.8281 L180,208.9609 L170,218.9609 L102,218.9609 L102,201.8281 " fill="#EEEEEE" style="stroke:#000000;stroke-width:1.5;"/><rect fill="none" height="327.4609" style="stroke:#000000;stroke-width:1.5;" width="1010.5" x="102" y="201.8281"/><text fill="#000000" font-family="sans-serif" font-size="13" font-weight="bold" lengthAdjust="spacing" textLength="33" x="117" y="214.895">loop</text><polygon fill="#181818" points="561.5,236.0938,571.5,240.0938,561.5,244.0938,565.5,240.0938" style="stroke:#181818;stroke-width:1.0;"/><line style="stroke:#181818;stroke-width:1.0;" x1="152.5" x2="567.5" y1="240.0938" y2="240.0938"/><text fill="#000000" font-family="sans-serif" font-size="13" lengthAdjust="spacing" textLength="319" x="159.5" y="235.0278">Ввести данные учетной записи (логин, пароль)</text><polygon fill="#181818" points="901.5,265.2266,911.5,269.2266,901.5,273.2266,905.5,269.2266" style="stroke:#181818;stroke-width:1.0;"/><line style="stroke:#181818;stroke-width:1.0;" x1="573.5" x2="907.5" y1="269.2266" y2="269.2266"/><text fill="#000000" font-family="sans-serif" font-size="13" lengthAdjust="spacing" textLength="181" x="580.5" y="264.1606">Передать учетные данные</text><line style="stroke:#181818;stroke-width:1.0;stroke-dasharray:2.0,2.0;" x1="913.5" x2="955.5" y1="298.3594" y2="298.3594"/><line style="stroke:#181818;stroke-width:1.0;stroke-dasharray:2.0,2.0;" x1="955.5" x2="955.5" y1="298.3594" y2="311.3594"/><line style="stroke:#181818;stroke-width:1.0;stroke-dasharray:2.0,2.0;" x1="914.5" x2="955.5" y1="311.3594" y2="311.3594"/><polygon fill="#181818" points="924.5,307.3594,914.5,311.3594,924.5,315.3594,920.5,311.3594" style="stroke:#181818;stroke-width:1.0;"/><text fill="#000000" font-family="sans-serif" font-size="13" lengthAdjust="spacing" textLength="180" x="920.5" y="293.2935">Проверка учетных данных</text><path d="M112,326.3594 L178,326.3594 L178,333.4922 L168,343.4922 L112,343.4922 L112,326.3594 " fill="#EEEEEE" style="stroke:#000000;stroke-width:1.5;"/><rect fill="none" height="195.9297" style="stroke:#000000;stroke-width:1.5;" width="867.5" x="112" y="326.3594"/><text fill="#000000" font-family="sans-serif" font-size="13" font-weight="bold" lengthAdjust="spacing" textLength="21" x="127" y="339.4263">alt</text><polygon fill="#181818" points="584.5,360.625,574.5,364.625,584.5,368.625,580.5,364.625" style="stroke:#181818;stroke-width:1.0;"/><line style="stroke:#181818;stroke-width:1.0;stroke-dasharray:2.0,2.0;" x1="578.5" x2="912.5" y1="364.625" y2="364.625"/><text fill="#000000" font-family="sans-serif" font-size="13" lengthAdjust="spacing" textLength="196" x="590.5" y="359.5591">Проверка пройдена успешно</text><polygon fill="#181818" points="163.5,389.7578,153.5,393.7578,163.5,397.7578,159.5,393.7578" style="stroke:#181818;stroke-width:1.0;"/><line style="stroke:#181818;stroke-width:1.0;stroke-dasharray:2.0,2.0;" x1="157.5" x2="572.5" y1="393.7578" y2="393.7578"/><text fill="#000000" font-family="sans-serif" font-size="13" lengthAdjust="spacing" textLength="268" x="169.5" y="388.6919">Главная страница сервис бронирования</text><line style="stroke:#000000;stroke-width:1.0;stroke-dasharray:2.0,2.0;" x1="112" x2="979.5" y1="402.7578" y2="402.7578"/><polygon fill="#181818" points="584.5,420.8906,574.5,424.8906,584.5,428.8906,580.5,424.8906" style="stroke:#181818;stroke-width:1.0;"/><line style="stroke:#181818;stroke-width:1.0;stroke-dasharray:2.0,2.0;" x1="578.5" x2="912.5" y1="424.8906" y2="424.8906"/><text fill="#000000" font-family="sans-serif" font-size="13" lengthAdjust="spacing" textLength="162" x="590.5" y="419.8247">Неверный логин/пароль</text><polygon fill="#181818" points="163.5,450.0234,153.5,454.0234,163.5,458.0234,159.5,454.0234" style="stroke:#181818;stroke-width:1.0;"/><line style="stroke:#181818;stroke-width:1.0;stroke-dasharray:2.0,2.0;" x1="157.5" x2="572.5" y1="454.0234" y2="454.0234"/><text fill="#000000" font-family="sans-serif" font-size="13" lengthAdjust="spacing" textLength="152" x="169.5" y="448.9575">Сообщение об ошибке</text><line style="stroke:#000000;stroke-width:1.0;stroke-dasharray:2.0,2.0;" x1="112" x2="979.5" y1="463.0234" y2="463.0234"/><line style="stroke:#181818;stroke-width:2.0;" x1="580.5" x2="590.5" y1="480.1563" y2="490.1563"/><line style="stroke:#181818;stroke-width:2.0;" x1="580.5" x2="590.5" y1="490.1563" y2="480.1563"/><line style="stroke:#181818;stroke-width:1.0;stroke-dasharray:2.0,2.0;" x1="585.5" x2="912.5" y1="485.1563" y2="485.1563"/><text fill="#000000" font-family="sans-serif" font-size="13" lengthAdjust="spacing" textLength="120" x="590.5" y="480.0903">Ошибка таймаута</text><polygon fill="#181818" points="163.5,510.2891,153.5,514.2891,163.5,518.2891,159.5,514.2891" style="stroke:#181818;stroke-width:1.0;"/><line style="stroke:#181818;stroke-width:1.0;stroke-dasharray:2.0,2.0;" x1="157.5" x2="572.5" y1="514.2891" y2="514.2891"/><text fill="#000000" font-family="sans-serif" font-size="13" lengthAdjust="spacing" textLength="141" x="169.5" y="509.2231">Попробуйте позднее</text><line style="stroke:#000000;stroke-width:1.0;stroke-dasharray:2.0,2.0;" x1="92" x2="1122.5" y1="537.2891" y2="537.2891"/><a href="Пользователь" target="_top" title="Пользователь" xlink:actuate="onRequest" xlink:href="Пользователь" xlink:show="new" xlink:title="Пользователь" xlink:type="simple"><text fill="#0000FF" font-family="sans-serif" font-size="11" font-weight="bold" lengthAdjust="spacing" text-decoration="underline" textLength="339" x="97" y="547.4995">не зарегистрирован, нажал кнопку "Регистрация"</text></a><polygon fill="#181818" points="561.5,568.2266,571.5,572.2266,561.5,576.2266,565.5,572.2266" style="stroke:#181818;stroke-width:1.0;"/><line style="stroke:#181818;stroke-width:1.0;" x1="152.5" x2="567.5" y1="572.2266" y2="572.2266"/><text fill="#000000" font-family="sans-serif" font-size="13" lengthAdjust="spacing" textLength="136" x="159.5" y="567.1606">Зарегистрироваться</text><polygon fill="#181818" points="163.5,597.3594,153.5,601.3594,163.5,605.3594,159.5,601.3594" style="stroke:#181818;stroke-width:1.0;"/><line style="stroke:#181818;stroke-width:1.0;stroke-dasharray:2.0,2.0;" x1="157.5" x2="572.5" y1="601.3594" y2="601.3594"/><text fill="#000000" font-family="sans-serif" font-size="13" lengthAdjust="spacing" textLength="216" x="169.5" y="596.2935">Отобразить форму регистрации</text><polygon fill="#181818" points="561.5,626.4922,571.5,630.4922,561.5,634.4922,565.5,630.4922" style="stroke:#181818;stroke-width:1.0;"/><line style="stroke:#181818;stroke-width:1.0;" x1="152.5" x2="567.5" y1="630.4922" y2="630.4922"/><text fill="#000000" font-family="sans-serif" font-size="13" lengthAdjust="spacing" textLength="397" x="159.5" y="625.4263">Заполнить форму регистрации, подтвердить ввод данных</text><polygon fill="#181818" points="901.5,655.625,911.5,659.625,901.5,663.625,905.5,659.625" style="stroke:#181818;stroke-width:1.0;"/><line style="stroke:#181818;stroke-width:1.0;" x1="573.5" x2="907.5" y1="659.625" y2="659.625"/><text fill="#000000" font-family="sans-serif" font-size="13" lengthAdjust="spacing" textLength="231" x="580.5" y="654.5591">Передать данные нового клиента</text><line style="stroke:#181818;stroke-width:1.0;" x1="913.5" x2="955.5" y1="688.7578" y2="688.7578"/><line style="stroke:#181818;stroke-width:1.0;" x1="955.5" x2="955.5" y1="688.7578" y2="701.7578"/><line style="stroke:#181818;stroke-width:1.0;" x1="914.5" x2="955.5" y1="701.7578" y2="701.7578"/><polygon fill="#181818" points="924.5,697.7578,914.5,701.7578,924.5,705.7578,920.5,701.7578" style="stroke:#181818;stroke-width:1.0;"/><text fill="#000000" font-family="sans-serif" font-size="13" lengthAdjust="spacing" textLength="120" x="920.5" y="683.6919">Проверка данных</text><path d="M112,716.7578 L178,716.7578 L178,723.8906 L168,733.8906 L112,733.8906 L112,716.7578 " fill="#EEEEEE" style="stroke:#000000;stroke-width:1.5;"/><rect fill="none" height="135.6641" style="stroke:#000000;stroke-width:1.5;" width="867.5" x="112" y="716.7578"/><text fill="#000000" font-family="sans-serif" font-size="13" font-weight="bold" lengthAdjust="spacing" textLength="21" x="127" y="729.8247">alt</text><polygon fill="#181818" points="584.5,751.0234,574.5,755.0234,584.5,759.0234,580.5,755.0234" style="stroke:#181818;stroke-width:1.0;"/><line style="stroke:#181818;stroke-width:1.0;stroke-dasharray:2.0,2.0;" x1="578.5" x2="912.5" y1="755.0234" y2="755.0234"/><text fill="#000000" font-family="sans-serif" font-size="13" lengthAdjust="spacing" textLength="168" x="590.5" y="749.9575">Клиент зарегистрирован</text><polygon fill="#181818" points="163.5,780.1563,153.5,784.1563,163.5,788.1563,159.5,784.1563" style="stroke:#181818;stroke-width:1.0;"/><line style="stroke:#181818;stroke-width:1.0;stroke-dasharray:2.0,2.0;" x1="157.5" x2="572.5" y1="784.1563" y2="784.1563"/><text fill="#000000" font-family="sans-serif" font-size="13" lengthAdjust="spacing" textLength="337" x="169.5" y="779.0903">Отобразить сообщение об успешной регистрации</text><line style="stroke:#000000;stroke-width:1.0;stroke-dasharray:2.0,2.0;" x1="112" x2="979.5" y1="793.1563" y2="793.1563"/><polygon fill="#181818" points="584.5,811.2891,574.5,815.2891,584.5,819.2891,580.5,815.2891" style="stroke:#181818;stroke-width:1.0;"/><line style="stroke:#181818;stroke-width:1.0;stroke-dasharray:2.0,2.0;" x1="578.5" x2="912.5" y1="815.2891" y2="815.2891"/><text fill="#000000" font-family="sans-serif" font-size="13" lengthAdjust="spacing" textLength="316" x="590.5" y="810.2231">Ошибка заполнения регистрационных данных</text><polygon fill="#181818" points="163.5,840.4219,153.5,844.4219,163.5,848.4219,159.5,844.4219" style="stroke:#181818;stroke-width:1.0;"/><line style="stroke:#181818;stroke-width:1.0;stroke-dasharray:2.0,2.0;" x1="157.5" x2="572.5" y1="844.4219" y2="844.4219"/><text fill="#000000" font-family="sans-serif" font-size="13" lengthAdjust="spacing" textLength="152" x="169.5" y="839.356">Сообщение об ошибке</text><!--MD5=[e02c015d2c4abf65c61252ec8f588dd3]
@startuml
actor Клиент #grey

participant Booking #grey

participant Authorization #grey

Клиент->Booking: Открыть сервис бронирования
Booking- ->Клиент: Форма авторизации

note left
 Клиент
 зарегистрирован?
end note
alt [Пользователь зарегистрирован]
loop
Клиент->Booking: Ввести данные учетной записи (логин, пароль)

Booking->Authorization: Передать учетные данные
Authorization- ->Authorization: Проверка учетных данных
Alt
Authorization- ->Booking: Проверка пройдена успешно

Booking- ->Клиент: Главная страница сервис бронирования
else #pink
Authorization- ->Booking: Неверный логин/пароль
Booking- ->Клиент: Сообщение об ошибке
else #gray
Authorization- ->x Booking: Ошибка таймаута
Booking- ->Клиент: Попробуйте позднее
end
end
else [Пользователь не зарегистрирован, нажал кнопку "Регистрация"]
Клиент->Booking: Зарегистрироваться
Booking- ->Клиент: Отобразить форму регистрации
Клиент->Booking: Заполнить форму регистрации, подтвердить ввод данных
Booking->Authorization: Передать данные нового клиента
Authorization->Authorization: Проверка данных

Alt
Authorization- ->Booking: Клиент зарегистрирован
Booking- ->Клиент: Отобразить сообщение об успешной регистрации

else #pink
Authorization- ->Booking: Ошибка заполнения регистрационных данных
Booking- ->Клиент: Сообщение об ошибке
end
end
@enduml

PlantUML version 1.2022.6beta5(Unknown compile time)
(GPL source distribution)
Java Runtime: Java(TM) SE Runtime Environment
JVM: Java HotSpot(TM) 64-Bit Server VM
Default Encoding: UTF-8
Language: en
Country: US
--></g></svg>